<svg width="18" height="18" viewBox="0 0 18 18" fill="none" xmlns="http://www.w3.org/2000/svg">
<path d="M14.4608 8.27341C14.4085 8.32571 14.3465 8.3672 14.2782 8.39551C14.2099 8.42381 14.1367 8.43839 14.0628 8.43839C13.9889 8.43839 13.9157 8.42381 13.8474 8.39551C13.7791 8.3672 13.7171 8.32571 13.6648 8.27341L9.56281 4.17068V15.1879C9.56281 15.3371 9.50355 15.4802 9.39806 15.5857C9.29257 15.6912 9.1495 15.7504 9.00031 15.7504C8.85113 15.7504 8.70805 15.6912 8.60257 15.5857C8.49708 15.4802 8.43781 15.3371 8.43781 15.1879V4.17068L4.33578 8.27341C4.23023 8.37896 4.08708 8.43826 3.93781 8.43826C3.78855 8.43826 3.64539 8.37896 3.53984 8.27341C3.4343 8.16786 3.375 8.02471 3.375 7.87544C3.375 7.72618 3.4343 7.58302 3.53984 7.47747L8.60234 2.41497C8.65458 2.36267 8.71662 2.32119 8.78491 2.29288C8.8532 2.26457 8.92639 2.25 9.00031 2.25C9.07423 2.25 9.14743 2.26457 9.21572 2.29288C9.284 2.32119 9.34604 2.36267 9.39828 2.41497L14.4608 7.47747C14.5131 7.52971 14.5546 7.59175 14.5829 7.66004C14.6112 7.72832 14.6258 7.80152 14.6258 7.87544C14.6258 7.94936 14.6112 8.02256 14.5829 8.09085C14.5546 8.15913 14.5131 8.22117 14.4608 8.27341Z" fill="#808080"/>
</svg>
